<svg t="1576567952573" class="icon" viewBox="0 0 1024 1024" version="1.1" xmlns="http://www.w3.org/2000/svg" p-id="3290" width="200" height="200"><path d="M510.7 63.6c-247.4 0-448 200.6-448 448s200.6 448 448 448 448-200.6 448-448-200.6-448-448-448z m1.4 116.6c83.9 0 151.9 68 151.9 151.9S596 484 512.1 484s-151.9-68-151.9-151.9 68-151.9 151.9-151.9z m265.6 592c0 8.7-4 17-11 22.9-67.6 56.6-157.4 91.1-255.8 91.1-97.1 0-185.7-33.5-253-88.8-7.2-5.9-11.3-14.4-11.4-23.3v-2c0-135.5 118.9-245.3 265.6-245.3s265.6 109.8 265.6 245.3v0.1z" p-id="3291"></path></svg>