<svg t="1575162124074" class="icon" viewBox="0 0 1024 1024" version="1.1" xmlns="http://www.w3.org/2000/svg" p-id="3792" width="80" height="80"><path d="M967.873761 218.213099c-3.145929-31.60229-26.454406-57.341712-57.484709-63.919565-62.918587-9.866778-124.979193-24.166457-185.895825-42.756039-59.629661-24.452451-115.541405-57.198715-166.019271-97.094819-26.454406-19.018573-62.203603-19.018573-88.801005 0-47.903924 44.329004-105.102639 77.218266-167.306242 96.522832-57.627706 23.880464-118.687334 38.895126-180.747941 44.757994-31.745287 5.147884-55.482754 31.745287-56.912721 63.919565-1.429968 32.031281-1.858958 160.2994-1.858959 301.580226 0 255.53526 301.580226 502.776707 452.298841 502.776707s406.253875-174.456082 447.150957-498.915794c10.152772-191.615696 3.145929-306.013127 3.145929-306.013127l2.430946-0.85798zM803.713448 415.548666L488.83452 712.695992c-14.299679 13.441698-35.749197 15.58665-52.336824 5.147885l-8.293814-7.006843-173.884094-180.890937c-16.158637-17.588605-15.15766-45.043988 2.573942-61.345622 17.588605-16.158637 45.043988-15.15766 61.345622 2.573942l143.139785 150.146628 283.562631-268.261975c17.588605-16.158637 45.043988-15.014663 61.345622 2.573942 16.158637 17.588605 15.014663 45.043988-2.573942 61.345622" fill="" p-id="3793"></path></svg>