<svg t="1576307624719" class="icon" viewBox="0 0 1024 1024" version="1.1" xmlns="http://www.w3.org/2000/svg" p-id="4776" width="200" height="200"><path d="M516.180206 960.747397C271.299963 963.128631 70.857814 766.544347 68.476581 521.665127 66.097394 276.78693 262.681678 76.343759 507.559874 73.961502c244.87922-2.379187 445.322391 194.205097 447.703625 439.083294C957.642686 757.926062 761.058402 958.36821 516.180206 960.747397zM603.756797 373.882316l-78.523401 119.030977-90.750887-116.4195-79.322603 0.77055 121.835859 167.876452-79.564104 0.772596 0.595564 61.426001 89.720418-0.871857 0.26913 27.568892-89.720418 0.873903 0.595564 61.426001 89.720418-0.871857 0.797156 81.981153 70.846558-26.809599-0.543376-55.863309 70.131267-0.681522 22.37766-61.649082-93.107561 0.904603-0.267083-27.569916 70.131267-0.681522 27.213805-61.695131-87.302345 0.847298 114.670669-171.140799L603.756797 373.882316z" p-id="4777"></path></svg>