<svg t="1576562185511" class="icon" viewBox="0 0 1024 1024" version="1.1" xmlns="http://www.w3.org/2000/svg" p-id="10029" width="200" height="200"><path d="M781.2 98.2h-537c-53.9 0-97.6 43.7-97.6 97.6v634.7c0 53.9 43.7 97.6 97.6 97.6h537.1c53.9 0 97.6-43.7 97.6-97.6V195.9c0-54-43.7-97.7-97.7-97.7z m-537 317.4h146.5v-73.2H293v-48.8h48.8v-73.2h48.8v73.2h48.8v-73.2h48.8v73.2H537v48.8h-97.6v73.2H586v48.8H439.5v122.1h-48.8V464.4H244.2v-48.8z m537 390.6H293v-48.8h488.2v48.8z m0-146.5H488.3v-48.8h292.9v48.8z" p-id="10030"></path></svg>