<svg t="1575446832082" class="icon" viewBox="0 0 1024 1024" version="1.1" xmlns="http://www.w3.org/2000/svg" p-id="3272" width="80" height="80"><path d="M754.3 763.5c-56.3 0-102.2 45.8-102.2 102.2 0 56.4 45.9 102.2 102.2 102.2 56.4 0 102.3-45.8 102.3-102.2 0-56.5-45.9-102.2-102.3-102.2z m-441.9 0c-56.4 0-102.3 45.8-102.3 102.2 0 56.4 45.9 102.2 102.3 102.2s102.3-45.8 102.3-102.2c0-56.5-46-102.2-102.3-102.2z m695.3-535.1c-15.8-22.3-41.5-35.6-68.9-35.6H185.1L159.7 76.4c-0.2-1-0.7-1.5-1-2.3-0.6-1.8-1.4-3.4-2.3-5.1-0.8-1.4-1.7-2.8-2.7-4.1-1.2-1.4-2.4-2.5-3.8-3.6s-2.8-2.1-4.3-2.9c-1.4-0.8-2.9-1.3-4.5-1.9-1.8-0.6-3.6-0.9-5.5-1.1-0.8-0.1-1.4-0.5-2.4-0.5H27.1C12.1 54.9 0 67 0 82c0 15 12.2 27 27.1 27h84.4l25.4 116.3L214.7 619c10.9 55.1 59.6 95.1 115.8 95.1h459.2c49.8 0 94.5-31.5 111.2-78.4l117.6-330.6v-0.1c8.9-25.5 4.9-54.3-10.8-76.6z m0 0" p-id="3273"></path></svg>