<svg t="1575166266488" class="icon" viewBox="0 0 1024 1024" version="1.1" xmlns="http://www.w3.org/2000/svg" p-id="4565" width="100" height="100"><path d="M575.757 785.07h20.135v3.473h-20.135v-3.473zM664.35 763.577h4.983v16.107h-4.984v-16.107zM433.106 771.78h-15.529c-0.05 0.068-0.1 0.126-0.15 0.177 1.946 2.5 4.405 4.555 7.375 6.166 3.472-1.862 6.24-3.977 8.304-6.342z" p-id="4566"></path><path d="M442.77 763.777h-36.845v37.702h36.846v-37.702z m-7.6 36.041c-7.417-1.643-15.387-3.052-23.91-4.227l1.057-3.474c8.39 1.107 16.46 2.4 24.212 3.875l-1.36 3.826z m-18.625-10.923l1.007-3.371a697.292 697.292 0 0 1 15.554 2.516l-1.057 3.522c-5.504-1.106-10.671-1.995-15.504-2.667z m23.457-2.617c-5.956-1.36-10.99-2.895-15.1-4.606-4.112 1.846-9.564 3.649-16.36 5.411a21.192 21.192 0 0 0-1.712-3.221c5.89-1.209 10.755-2.592 14.598-4.153-2.366-1.628-4.405-3.499-6.117-5.612a66.5 66.5 0 0 1-5.21 4.48 85.642 85.642 0 0 0-2.465-2.467c4.596-3.322 8.372-7.23 11.324-11.728l3.323 1.56a37.674 37.674 0 0 1-2.014 2.718h17.82v2.97c-2.467 2.986-5.613 5.68-9.439 8.08 3.54 1.19 7.878 2.12 13.012 2.792-0.771 1.511-1.325 2.769-1.66 3.776zM680.053 763.475h5.034v16.209h-5.034v-16.209zM575.757 791.664h20.135v3.474h-20.135v-3.474z" p-id="4567"></path><path d="M847.475 617.086c-50.974 0-94.69-30.976-112.547-74.71-17.655 43.734-60.908 74.71-111.339 74.71-50.432 0-93.692-30.976-111.347-74.71-17.852 43.734-61.571 74.71-112.541 74.71-50.433 0-93.692-30.976-111.351-74.71-17.848 43.734-61.566 74.71-112.537 74.71-12.01 0-23.596-1.804-34.544-5.07v247.675c0 23.025 25.589 51.17 48.615 51.17h643.522c23.024 0 48.613-28.145 48.613-51.17V612.109c-10.958 3.2-22.536 4.977-34.544 4.977z m32.626-392.015H140.63L63.867 425.933c0 60.131 49.898 110.022 111.306 110.022 61.406 0 112.581-48.614 112.581-110.022 0 60.131 49.898 110.022 111.307 110.022s112.581-48.614 112.581-110.022c0 60.131 49.897 110.022 111.306 110.022 61.412 0 111.302-48.614 111.302-110.022 0 60.131 49.898 110.022 112.587 110.022 61.41 0 112.585-48.614 112.585-110.022l-79.32-200.862z m-35.828-1.28l2.557 1.28-2.557-1.28z m-652.472-32.81H831.48c21.755 0 38.385-16.63 38.385-38.383 0-21.748-16.63-38.38-38.385-38.38H191.8c-21.746 0-38.377 16.632-38.377 38.38 0 21.753 16.632 38.384 38.378 38.384z" p-id="4568"></path></svg>